<?xml version="1.0" encoding="UTF-8"?>
<svg id="Layer_2" data-name="Layer 2" xmlns="http://www.w3.org/2000/svg" viewBox="0 0 256.44 67.23">
  <g id="Isolation_Mode" data-name="Isolation Mode">
    <g id="Isolation_Mode-2" data-name="Isolation Mode">
      <polygon points="248.2 49.58 256.44 35.28 114.09 35.28 105.85 49.58 248.2 49.58" style="fill: #da410f;"/>
      <polygon points="148.91 14.3 157.12 0 142.87 0 134.61 14.3 148.91 14.3" style="fill: #da410f;"/>
      <rect x="121.07" width="14.3" height="14.3" style="fill: #da410f;"/>
      <polygon points="131.26 31.94 139.48 17.64 125.23 17.64 116.97 31.94 131.26 31.94" style="fill: #5c5ab3;"/>
      <polygon points="131.26 49.58 139.48 35.28 125.23 35.28 116.97 49.58 131.26 49.58" style="fill: #7977e9;"/>
      <rect x="103.43" width="14.3" height="14.3" style="fill: #5c5ab3;"/>
      <rect x="103.43" y="17.64" width="14.3" height="14.3" style="fill: #5c5ab3;"/>
      <polygon points="113.62 49.58 121.83 35.28 107.59 35.28 99.32 49.58 113.62 49.58" style="fill: #7977e9;"/>
      <polygon points="113.62 67.22 121.83 52.93 107.59 52.93 99.32 67.22 113.62 67.22" style="fill: #5c5ab3;"/>
      <polygon points="95.98 31.94 104.19 17.64 89.95 17.64 81.68 31.94 95.98 31.94" style="fill: #5c5ab3;"/>
      <polygon points="95.98 49.58 104.19 35.28 89.95 35.28 81.68 49.58 95.98 49.58" style="fill: #7a78ed;"/>
      <polygon points="78.34 14.3 86.55 0 72.3 0 64.04 14.3 78.34 14.3" style="fill: #5c5ab3;"/>
      <polygon points="78.34 31.94 86.55 17.64 72.3 17.64 64.04 31.94 78.34 31.94" style="fill: #5c5ab3;"/>
      <polygon points="142.35 49.58 150.59 35.28 8.24 35.28 0 49.58 142.35 49.58" style="fill: #5c5ab3;"/>
      <rect x="56.92" y="52.93" width="36.76" height="14.3" style="fill: #5c5ab3;"/>
      <polygon points="60.7 14.3 68.91 0 54.66 0 46.4 14.3 60.7 14.3" style="fill: #5c5ab3;"/>
      <polygon points="60.7 49.58 68.91 35.28 54.66 35.28 46.4 49.58 60.7 49.58" style="fill: #5c5ab3;"/>
      <rect x="32.86" width="14.3" height="14.3" style="fill: #5c5ab3;"/>
      <rect x="32.86" y="17.64" width="14.3" height="14.3" style="fill: #5c5ab3;"/>
      <polygon points="43.05 67.22 51.27 52.93 37.02 52.93 28.76 67.22 43.05 67.22" style="fill: #5c5ab3;"/>
      <rect x="15.22" y="35.28" width="14.3" height="14.3" style="fill: #5c5ab3;"/>
    </g>
  </g>
</svg>